<?xml version="1.0" standalone="no"?><!DOCTYPE svg PUBLIC "-//W3C//DTD SVG 1.1//EN" "http://www.w3.org/Graphics/SVG/1.1/DTD/svg11.dtd"><svg t="1759928770819" class="icon" viewBox="0 0 1024 1024" version="1.1" xmlns="http://www.w3.org/2000/svg" p-id="7316" xmlns:xlink="http://www.w3.org/1999/xlink" width="200" height="200"><path d="M728.035556 332.8c-11.093333 0-22.129778 1.024-32.995556 3.043556A182.186667 182.186667 0 0 0 380.871111 199.111111a38.542222 38.542222 0 1 0 55.864889 52.992 105.244444 105.244444 0 0 1 156.928 139.975111 38.542222 38.542222 0 0 0 57.571556 51.2 104.106667 104.106667 0 0 1 76.8-33.336889 105.244444 105.244444 0 1 1-72.362667 181.703111l-118.243556-105.073777-130.844444-116.167111a182.215111 182.215111 0 1 0 19.740444 272.014222 38.513778 38.513778 0 1 0-55.096889-53.845334 105.244444 105.244444 0 1 1-75.292444-178.631111 103.253333 103.253333 0 0 1 61.724444 19.911111l128.682667 114.346667 117.617778 104.504889a182.215111 182.215111 0 1 0 124.017778-315.733333l0.056889-0.170667zM636.700444 739.555556h-220.188444a30.663111 30.663111 0 0 0-31.146667 36.977777 147.427556 147.427556 0 0 0 282.453334 0 30.72 30.72 0 0 0-31.118223-36.977777z" fill="#098FFE" p-id="7317"></path></svg>