<?xml version="1.0" standalone="no"?><!DOCTYPE svg PUBLIC "-//W3C//DTD SVG 1.1//EN" "http://www.w3.org/Graphics/SVG/1.1/DTD/svg11.dtd"><svg t="1760323321195" class="icon" viewBox="0 0 1024 1024" version="1.1" xmlns="http://www.w3.org/2000/svg" p-id="39856" xmlns:xlink="http://www.w3.org/1999/xlink" width="200" height="200"><path d="M591.114 835.918H107.475c-29.854 0-56.723-26.868-56.723-56.723V56.723C50.752 26.869 77.621 0 107.475 0h477.668c35.825 0 62.694 26.869 62.694 62.694v716.501c0 29.855-26.87 56.723-56.723 56.723z" fill="#5CB6FF" p-id="39857"></path><path d="M158.227 907.569h695.604v59.708H158.227z" fill="#A2D6F9" p-id="39858"></path><path d="M767.254 89.563H385.12c-8.957 0-14.928 2.985-20.898 8.956l-226.893 247.79c-5.97 5.97-8.956 14.927-8.956 23.883v516.479c0 44.78 32.84 80.606 74.636 80.606h564.245c41.796 0 74.635-35.825 74.635-80.606V170.169c0-44.781-32.84-80.606-74.635-80.606z" fill="#FFFFFF" p-id="39859"></path><path d="M767.254 994.146H203.009c-56.723 0-104.49-50.752-104.49-110.46V367.206c0-14.927 5.97-29.854 17.912-41.796l226.893-247.79c11.941-11.942 26.868-17.913 41.796-17.913h382.134c56.723 0 104.49 50.753 104.49 110.461v713.516c0 62.694-44.782 110.46-104.49 110.46zM385.12 119.416L158.227 367.208v519.464c0 29.854 20.898 50.752 44.782 50.752h564.245c23.883 0 44.781-23.884 44.781-50.752V170.169c0-29.854-20.898-50.752-44.781-50.752H385.12z" fill="#424242" p-id="39860"></path><path d="M659.778 632.91H304.513c-17.912 0-29.854-11.942-29.854-29.855s11.942-29.854 29.854-29.854h355.265c17.913 0 29.855 11.942 29.855 29.854s-11.942 29.855-29.855 29.855z m0 116.431H304.513c-17.912 0-29.854-11.942-29.854-29.854s11.942-29.854 29.854-29.854h355.265c17.913 0 29.855 11.941 29.855 29.854s-11.942 29.854-29.855 29.854z m2.986-337.353H334.367c-17.912 0-29.854-11.941-29.854-29.854s11.942-29.854 29.854-29.854h328.397c17.912 0 29.854 11.942 29.854 29.854s-11.942 29.854-29.854 29.854z m-2.986 104.49H304.513c-17.912 0-29.854-11.942-29.854-29.854s11.942-29.854 29.854-29.854h355.265c17.913 0 29.855 11.941 29.855 29.854s-11.942 29.854-29.855 29.854z" fill="#5CB6FF" p-id="39861"></path><path d="M119.417 411.988V352.28l238.834-2.986c11.941 0 23.883-11.941 23.883-26.868l-2.985-208.98h59.708l2.986 208.98c0 47.766-35.826 86.577-83.592 86.577l-238.834 2.985z" fill="#424242" p-id="39862"></path><path d="M158.227 883.685h731.429v59.709H158.227z" fill="#005CFF" p-id="39863"></path><path d="M465.726 755.312a238.834 238.834 0 1 0 477.668 0 238.834 238.834 0 1 0-477.668 0z" fill="#2488FF" p-id="39864"></path><path d="M704.56 1024c-149.271 0-268.688-119.417-268.688-268.688S555.289 486.624 704.56 486.624 973.248 606.04 973.248 755.312 853.83 1024 704.56 1024z m0-477.668c-116.432 0-208.98 92.548-208.98 208.98s92.548 208.98 208.98 208.98 208.98-92.549 208.98-208.98-92.549-208.98-208.98-208.98z" fill="#FFFFFF" p-id="39865"></path><path d="M773.224 850.845c-8.956 0-14.927-2.985-20.897-8.956L617.983 710.531c-11.942-11.942-11.942-29.855 0-41.796 11.941-11.942 29.854-11.942 41.795 0l134.344 131.358c11.942 11.942 11.942 29.855 0 41.796-5.97 5.971-14.927 8.956-20.898 8.956z" fill="#FFFFFF" p-id="39866"></path><path d="M638.88 850.845c-8.956 0-14.927-2.985-20.897-8.956-11.942-11.941-11.942-29.854 0-41.796l134.344-131.358c11.941-11.942 29.854-11.942 41.795 0 11.942 11.941 11.942 29.854 0 41.796L659.778 841.889c-5.97 5.971-14.927 8.956-20.898 8.956z" fill="#FFFFFF" p-id="39867"></path></svg>