<?xml version="1.0" standalone="no"?><!DOCTYPE svg PUBLIC "-//W3C//DTD SVG 1.1//EN" "http://www.w3.org/Graphics/SVG/1.1/DTD/svg11.dtd"><svg t="1760420359168" class="icon" viewBox="0 0 1024 1024" version="1.1" xmlns="http://www.w3.org/2000/svg" p-id="13896" xmlns:xlink="http://www.w3.org/1999/xlink" width="200" height="200"><path d="M420.2 611.4c-1.3 10.9-11.1 18.6-21.9 17.3-10.8-1.3-18.4-11.3-17.1-22.2L402.4 431c1.3-10.9 11.1-18.6 21.9-17.3 10.8 1.3 18.4 11.3 17.1 22.2l-21.2 175.5z m120 0c-1.3 10.9-11.1 18.6-21.9 17.3-10.8-1.3-18.4-11.3-17.1-22.2L522.5 431c1.3-10.9 11.1-18.6 21.9-17.3 10.8 1.3 18.5 11.3 17.1 22.2l-21.3 175.5z m0 0" p-id="13897" fill="#1664ff"></path><path d="M536.5 519.4c0 10-8 18.1-17.9 18.1h-89.3c-9.9 0-17.9-8.1-17.9-18.1 0-10 8-18.1 17.9-18.1h89.3c9.8 0 17.9 8.1 17.9 18.1z m82.8 90.6c-1.3 11.4-11.4 19.6-22.7 18.3-11.3-1.3-19.4-11.6-18.1-23l12-107.4c1.3-11.4 11.4-19.6 22.7-18.3 11.3 1.3 19.4 11.6 18.1 23l-12 107.4z m15.8-160.5c-1.1 10.6-10.5 18.4-21 17.3-10.5-1.1-18.2-10.6-17.1-21.2l1.4-14.2c1.1-10.6 10.5-18.4 21-17.3 10.5 1.1 18.2 10.6 17.1 21.2l-1.4 14.2z m0 0" p-id="13898" fill="#1664ff"></path><path d="M509.4 166.5C321 166.5 167.7 319.3 167.7 507c0 187.8 153.3 340.5 341.7 340.5 1.1 0 5.8 0.1 13.1 0.3 28.6 0.7 95.5 2.4 144.9 2.4 52.6 0 61.9-1.8 66.9-5 10.5-5 12.7-13.8 13.1-17.5 1.9-15.6-11.5-24.6-27-35.1-3.8-2.6-9.6-6.5-13.9-9.9 97.9-88.9 147.1-158 144.5-276-0.1-187.5-153.3-340.2-341.6-340.2z m163.5 597.4l-2 1.7-1.4 2.2c-11.5 18.4 2.2 34 16.9 45.6-5.4 0.1-11.7 0.1-19.1 0.1-49 0-115.6-1.7-144-2.4-4.7-0.1-9.3-0.3-14-0.3C341 810.8 204 674.6 204 507.1s137-303.8 305.3-303.8 305.3 136.3 305.3 303.8v0.4c2.5 108.1-43.7 168.8-141.7 256.4z m0 0" p-id="13899" fill="#1664ff"></path></svg>