<?xml version="1.0" standalone="no"?><!DOCTYPE svg PUBLIC "-//W3C//DTD SVG 1.1//EN" "http://www.w3.org/Graphics/SVG/1.1/DTD/svg11.dtd"><svg t="1760254389150" class="icon" viewBox="0 0 1024 1024" version="1.1" xmlns="http://www.w3.org/2000/svg" p-id="18876" xmlns:xlink="http://www.w3.org/1999/xlink" width="200" height="200"><path d="M269.418667 715.370667c0 15.658667 13.034667 37.034667 29.205333 37.034666h100.117333c16.170667 0 29.205333-20.864 29.205334-37.034666 0-16.149333-13.034667-37.013333-29.205334-37.013334h-100.117333c-15.658667 0-29.226667 21.376-29.226667 37.013334zM585.813333 512c0-16.170667-13.034667-37.034667-29.205333-37.034667H298.624c-15.658667 0-29.226667 20.864-29.226667 37.034667s12.010667 36.501333 29.226667 36.501333h257.472c15.637333 0 29.205333-21.376 29.205333-37.013333l0.512 0.512z m-287.189333-164.266667H727.253333c16.170667 0 29.205333-20.864 29.205334-37.034666 0-16.149333-13.034667-37.013333-29.205334-37.013334H298.624c-15.658667 0-29.226667 21.376-29.226667 37.013334 0.533333 15.658667 13.568 37.034667 29.226667 37.034666z m586.133333 118.528V137.472a42.666667 42.666667 0 0 0-42.666666-42.666667H180.138667a42.666667 42.666667 0 0 0-42.666667 42.666667v748.522667a42.666667 42.666667 0 0 0 42.666667 42.666666h304.042666a34.730667 34.730667 0 0 0 38.570667-30.762666v-4.693334c0-23.466667-16.682667-45.376-32.32-45.888H219.349333V175.637333h583.552v290.624c0 15.637333 21.888 29.717333 46.4 29.717334a32.981333 32.981333 0 0 0 35.456-29.205334c-0.512 0-0.512-0.512 0-0.512z" fill="#3388FF" p-id="18877"></path><path d="M768 938.666667a192 192 0 0 1-192-192 192 192 0 0 1 192-192 192 192 0 0 1 192 192 192 192 0 0 1-192 192z m80.362667-256.96l-109.674667 102.826666-47.317333-45.077333a19.2 19.2 0 1 0-26.496 27.776l60.437333 57.6a19.2 19.2 0 0 0 26.389333 0.128l122.922667-115.242667a19.2 19.2 0 1 0-26.24-28.010666z" fill="#3CC56D" p-id="18878"></path></svg>